<?xml version="1.0" encoding="utf-8"?>
<!-- Generator: Adobe Illustrator 23.0.3, SVG Export Plug-In . SVG Version: 6.00 Build 0)  -->
<svg version="1.1" xmlns="http://www.w3.org/2000/svg" xmlns:xlink="http://www.w3.org/1999/xlink" x="0px" y="0px"
	 viewBox="0 0 36.15 35.99" style="enable-background:new 0 0 36.15 35.99;" xml:space="preserve">
<style type="text/css">
	.st0{fill:#aeaeae;}
	.st1{fill:#FE3E0C;}
</style>
<g id="BACKGROUND">
</g>
<g id="ELEMENTS">
	<g>
		<path fill='#aeaeae' d="M23.52,7.26H12.59c-0.75,0-1.37,0.61-1.37,1.37v16.38h13.65V8.63C24.88,7.87,24.27,7.26,23.52,7.26z M19.42,11.36h-2.73
			c-0.75,0-1.37-0.61-1.37-1.37s0.61-1.37,1.37-1.37h2.73c0.75,0,1.37,0.61,1.37,1.37S20.17,11.36,19.42,11.36z"/>
		<path fill='#aeaeae' d="M26.96,0.15H9.15c-5.04,0-9.13,4.09-9.13,9.13v17.81c0,5.04,4.09,9.13,9.13,9.13h17.81c5.04,0,9.13-4.09,9.13-9.13V9.28
			C36.09,4.24,32,0.15,26.96,0.15z M27.61,27.74c0,2.26-1.83,4.1-4.1,4.1H12.59c-2.26,0-4.1-1.83-4.1-4.1V8.63
			c0-2.26,1.83-4.1,4.1-4.1h10.92c2.26,0,4.1,1.83,4.1,4.1V27.74z"/>
	</g>
</g>
<g id="TEXT">
</g>
</svg>
