<svg xmlns="http://www.w3.org/2000/svg" viewBox="0 0 36.15 35.99"><title>Vectores Formulario</title><g id="ELEMENTS"><path fill='#aeaeae' d="M18.06,10.3a4.38,4.38,0,1,0,4.37,4.38A4.38,4.38,0,0,0,18.06,10.3Z"/><path fill='#aeaeae' d="M27,.09H9.15A9.13,9.13,0,0,0,0,9.22V27a9.13,9.13,0,0,0,9.13,9.13H27A9.13,9.13,0,0,0,36.09,27V9.22A9.13,9.13,0,0,0,27,.09ZM18.89,30.82a1.19,1.19,0,0,1-.84.35,1.2,1.2,0,0,1-.83-.35c-1-1-9.42-10.15-9.42-15.48a10.26,10.26,0,1,1,20.52,0C28.32,20.67,19.85,29.79,18.89,30.82Z"/></g></svg>