<svg xmlns="http://www.w3.org/2000/svg" 
viewBox="0 0 36.15 35.99">
<title>
Vectores Formulario
</title> 
<g id="ELEMENTS"> 
<rect fill='#aeaeae' x="16.44" y="14.27" 
width="3.31" height="3.3"/> 
<rect fill='#aeaeae' x="16.44" y="7.94" width="3.31" height="3.31"/> <rect fill='#aeaeae' x="16.44" y="20.43" width="3.31" height="3.31"/> <rect fill='#aeaeae' x="22.01" y="7.94" width="3.31" height="3.31"/> <rect fill='#aeaeae' x="22.01" y="20.43" width="3.31" height="3.31"/> <rect fill='#aeaeae' x="22.01" y="14.27" width="3.31" height="3.3"/> <rect fill='#aeaeae' x="10.87" y="20.43" width="3.31" height="3.31"/> <path fill='#aeaeae' d="M27,0H9.19A9.13,9.13,0,0,0,.06,9.12V26.93a9.13,9.13,0,0,0,9.13,9.13H27a9.13,9.13,0,0,0,9.13-9.13V9.12A9.13,9.13,0,0,0,27,0Zm.93,31.74H22V26.47H14.17v5.26H8.26V4.32H27.92Z"/> <rect fill='#aeaeae' x="10.87" y="14.27" width="3.31" height="3.3"/> <rect fill='#aeaeae' x="10.87" y="7.94" width="3.31" height="3.31"/> </g> </svg>