<svg xmlns="http://www.w3.org/2000/svg" 
    viewBox="0 0 36.15 35.99">
    <title>
        Vectores Formulario
    </title>
    <g id="ELEMENTS"> 
    <path fill='#aeaeae' d="M27,0H9.19A9.13,9.13,0,0,0,.06,9.12V26.93a
        9.13,9.13,0,0,0,9.13,9.13H27a9.13,9.13,0,0,0,9.13-9.13V
        9.12A9.13,9.13,0,0,0,27,0ZM25.68,12.48A2.73,2.73,0,1,1,
        23,15.21,2.73,2.73,0,0,1,25.68,12.48ZM18.09,8.86A4.13,
        4.13,0,1,1,14,13,4.13,4.13,0,0,1,18.09,8.86ZM10.5,
        12.48a2.73,2.73,0,1,1-2.73,2.73A2.74,2.74,0,0,1,10.5,
        12.48ZM8.6,22.32v2.53h0A15.9,15.9,0,0,1,5.12,24a.53.53,0,
        0,1-.35-.5V21.72c0-2,2.1-2.88,3.74-3.27A3.77,3.77,0,0,0,
        9.89,19h0A5,5,0,0,0,8.6,22.32Zm17.91,2.53a1.06,1.06,0,0,
        1-.7,1,22.87,22.87,0,0,1-15.44,0,1.06,1.06,0,0,1-.7-1V22.32
        c0-3,3.17-4.35,5.66-4.93a5.21,5.21,0,0,0,5.53,0c2.48.59,
        5.64,1.94,5.65,4.93Zm4.9-1.32a.53.53,0,0,1-.34.5,16.13,
        16.13,0,0,1-3.49.83h0V22.32A5,5,0,0,0,26.29,19a3.77,3.77,
        0,0,0,1.38-.51c1.65.39,3.73,1.3,3.74,3.27Z"/>
    </g>
</svg>