<?xml version="1.0" encoding="utf-8"?>
<!-- Generator: Adobe Illustrator 23.0.1, SVG Export Plug-In . SVG Version: 6.00 Build 0)  -->
<svg version="1.1" id="Capa_1" xmlns="http://www.w3.org/2000/svg" xmlns:xlink="http://www.w3.org/1999/xlink" x="0px" y="0px"
	 viewBox="0 0 36.2 36" style="enable-background:new 0 0 36.2 36;" xml:space="preserve">
<title>Vectores Formulario</title>
<g id="ELEMENTS">
	<polygon fill='#aeaeae' points="16.7,18.9 13.5,15.7 10.9,18.3 16.7,24 25.2,15.4 22.7,12.9 	"/>
	<path fill='#aeaeae' d="M27,0H9.2c-5,0-9.1,4.1-9.1,9.1v17.8c0,5,4.1,9.1,9.1,9.1l0,0H27c5,0,9.1-4.1,9.1-9.1v0V9.1C36.1,4.1,32,0,27,0z M18.1,31
		C5.9,26.8,7.4,16.4,7.4,9.1c4,0.2,7.8-1.3,10.7-4c2.9,2.7,6.7,4.2,10.7,4C28.8,16.4,30.3,26.8,18.1,31L18.1,31z"/>
</g>
</svg>
