<?xml version="1.0" encoding="utf-8"?>
<!-- Generator: Adobe Illustrator 23.0.3, SVG Export Plug-In . SVG Version: 6.00 Build 0)  -->
<svg version="1.1" id="Capa_1" xmlns="http://www.w3.org/2000/svg" xmlns:xlink="http://www.w3.org/1999/xlink" x="0px" y="0px"
	 viewBox="0 0 232.6 68.7" style="enable-background:new 0 0 232.6 68.7;" xml:space="preserve">
<style type="text/css">
	.st0{fill:#262325;}
	.st1{fill:#FE3E0C;}
</style>
<title>Vectores Formulario</title>
<g id="TEXT">
	<path class="st0" d="M20.8,21.5v6.2h9.5v2.1h-9.5v6.5h11v2H18.6V19.4h12.8v2.1H20.8z"/>
	<path class="st0" d="M49.1,19.4c4.7,0,7.3,2.3,7.3,6.3c0,4.2-2.7,6.6-7.3,6.6h-4.9v5.9H42V19.4H49.1z M44.2,30.2H49
		c3.4,0,5.4-1.5,5.4-4.4s-2-4.3-5.4-4.3h-4.8V30.2z"/>
	<path class="st0" d="M65.9,38.2V19.4h2.2v18.8H65.9z"/>
	<path class="st0" d="M106.6,21.5v6.2h9.5v2.1h-9.5v6.5h11v2h-13.2V19.4h12.8v2.1H106.6z"/>
	<path class="st0" d="M141.3,38.2L130,23.1v15.1h-2.1V19.4h2.2l11.3,15.1V19.4h2.1v18.8H141.3z"/>
	<path class="st0" d="M160.8,21.5v16.8h-2.1V21.5h-6.1v-2.1H167v2.1H160.8z"/>
	<path class="st0" d="M178.2,21.5v6.2h9.4v2.1h-9.5v6.5h11v2H176V19.4h12.8v2.1H178.2z"/>
	<path class="st0" d="M207.9,32.2c-0.4,0-0.8,0.1-1.3,0.1h-5v5.9h-2.1V19.4h7.2c4.7,0,7.4,2.3,7.4,6.3c0.2,2.8-1.6,5.3-4.2,6.1
		l4.4,6.4h-2.4L207.9,32.2z M206.6,30.2c3.4,0,5.4-1.5,5.4-4.4s-1.9-4.3-5.4-4.3h-5v8.7H206.6z"/>
	<path class="st1" d="M93.6,28.8c0-1.9-1.5-3.5-3.5-3.5c-1.9,0-3.5,1.5-3.5,3.5s1.5,3.5,3.5,3.5c0,0,0,0,0,0
		C92.1,32.3,93.6,30.8,93.6,28.8C93.6,28.8,93.6,28.8,93.6,28.8z"/>
	<path class="st1" d="M93.6,22.5l-0.3-0.2c-0.3-0.1-0.6-0.2-0.9-0.3c-0.5-0.1-0.9-0.2-1.4-0.2h-0.4h-0.7c-0.1,0-0.2,0-0.2,0h-0.2
		h-0.2c-0.7,0.1-1.4,0.4-2.1,0.7c-0.7,0.4-1.3,0.9-1.9,1.5c-0.3,0.3-0.5,0.6-0.8,1c-0.2,0.4-0.4,0.7-0.6,1.1
		c-0.2,0.4-0.3,0.8-0.4,1.2l-0.1,0.3c0,0.1,0,0.2,0,0.3v0.3V29v0.3v0.3l0.1,0.3c0.1,0.5,0.2,0.9,0.4,1.4c0.2,0.4,0.4,0.8,0.6,1.1
		c0.2,0.4,0.5,0.7,0.8,1c0.5,0.6,1.2,1.1,1.9,1.5c0.6,0.3,1.3,0.6,2.1,0.7c0.3,0.1,0.7,0.1,1,0.1h0.5h0.4c0.5,0,1-0.1,1.4-0.2
		c0.3-0.1,0.6-0.2,0.9-0.3l0.3-0.1l-0.3,0.2c-0.1,0.1-0.2,0.1-0.4,0.2c-0.2,0.1-0.3,0.2-0.5,0.2c-0.5,0.2-1,0.3-1.4,0.4l-0.5,0.1
		h-0.5h-0.8h-0.3c-0.4,0-0.8-0.1-1.1-0.2c-0.4-0.1-0.8-0.2-1.2-0.4c-0.8-0.4-1.6-0.9-2.2-1.5c-0.7-0.7-1.2-1.5-1.6-2.4
		c-0.2-0.4-0.4-0.9-0.5-1.4c0-0.1,0-0.2-0.1-0.4c-0.1-0.1,0-0.2-0.1-0.4v-0.4v-0.7v-0.4c0-0.1,0-0.2,0.1-0.4c0-0.1,0-0.2,0.1-0.4
		c0.1-0.5,0.2-1,0.4-1.4c0.4-0.9,0.9-1.7,1.7-2.4c0.6-0.6,1.4-1.1,2.2-1.5c0.7-0.3,1.5-0.5,2.3-0.6h0.3h0.8l0.5,0l0.5,0.1
		c0.5,0.1,1,0.2,1.4,0.4c0.2,0.1,0.3,0.1,0.5,0.2c0.1,0.1,0.2,0.1,0.4,0.2L93.6,22.5z"/>
	<path class="st1" d="M95,20.3l-0.4-0.2C94.4,20,94.2,20,94,19.9s-0.4-0.1-0.7-0.2c-0.7-0.2-1.3-0.3-2-0.4h-0.6h-1h-0.3h-0.3
		l-0.3,0.1c-1,0.2-1.9,0.5-2.8,0.9c-1,0.5-1.9,1.2-2.6,2c-2.5,2.7-3.3,6.6-1.9,10.1c0.4,1.1,1.1,2.1,1.9,3c0.8,0.8,1.7,1.5,2.6,2
		c0.5,0.2,0.9,0.4,1.4,0.6c0.5,0.2,0.9,0.3,1.4,0.3c0.4,0.1,0.9,0.1,1.3,0.1c0.2,0,0.4,0,0.6,0h0.6c0.7-0.1,1.3-0.2,2-0.4
		c0.3-0.1,0.5-0.2,0.7-0.2c0.2-0.1,0.4-0.1,0.5-0.2l0.4-0.2l-0.4,0.2c-0.2,0.1-0.3,0.2-0.5,0.3c-0.2,0.1-0.4,0.2-0.7,0.3
		c-0.6,0.3-1.3,0.4-2,0.6l-0.6,0.1l-0.6,0h-1h-0.4c-0.5,0-1-0.1-1.5-0.3c-0.6-0.2-1.1-0.4-1.7-0.6c-1.1-0.5-2.1-1.2-2.9-2.1
		c-0.9-0.9-1.6-2-2.1-3.2c-1.1-2.5-1.1-5.3,0-7.8c0.5-1.2,1.2-2.3,2.1-3.2c0.9-0.9,1.9-1.6,3-2.1c1-0.4,2-0.7,3.1-0.8h0.4h1h0.7
		l0.6,0.1c0.7,0.1,1.4,0.3,2,0.6c0.2,0.1,0.5,0.2,0.7,0.3c0.2,0.1,0.3,0.2,0.5,0.3L95,20.3z"/>
	<path class="st1" d="M96.2,18.2L95.6,18c-0.2-0.1-0.4-0.2-0.6-0.3c-0.2-0.1-0.6-0.2-0.9-0.3c-0.8-0.2-1.6-0.4-2.4-0.5L91,16.8h-1.2
		c-0.1,0-0.3,0-0.4,0h-0.4l-0.4,0.1c-0.6,0.1-1.2,0.2-1.8,0.4c-0.6,0.2-1.2,0.4-1.8,0.7c-1.2,0.7-2.4,1.5-3.3,2.6
		c-0.5,0.5-1,1.1-1.4,1.7c-0.4,0.6-0.7,1.3-1,2c-1.1,2.9-1.1,6.1,0,8.9c0.2,0.3,0.3,0.7,0.5,1c0.2,0.3,0.4,0.6,0.6,1
		c0.4,0.6,0.8,1.2,1.3,1.7c1,1,2.1,1.9,3.3,2.5c0.6,0.3,1.2,0.5,1.8,0.7c0.6,0.2,1.2,0.3,1.8,0.4c0.6,0.1,1.1,0.1,1.7,0.2H91l0.7,0
		c0.8-0.1,1.6-0.3,2.4-0.5c0.3-0.1,0.6-0.2,0.9-0.3c0.2-0.1,0.4-0.2,0.6-0.3l0.5-0.2l-0.5,0.3c-0.2,0.1-0.4,0.2-0.6,0.3
		c-0.3,0.1-0.6,0.3-0.9,0.4c-0.8,0.3-1.6,0.5-2.4,0.7L91,41.2l-0.8,0h-0.9h-0.4h-0.4c-1.3-0.2-2.6-0.5-3.8-1.1
		c-1.4-0.6-2.6-1.5-3.6-2.5c-0.6-0.6-1.1-1.2-1.5-1.8c-0.2-0.3-0.4-0.7-0.6-1c-0.2-0.4-0.4-0.7-0.5-1.1c-1.9-4.7-0.9-10,2.6-13.6
		c2-2,4.6-3.3,7.4-3.6h0.4h0.4h0.8H91l0.8,0.1c0.8,0.1,1.7,0.4,2.4,0.7c0.3,0.1,0.6,0.2,0.9,0.4c0.2,0.1,0.4,0.2,0.6,0.3L96.2,18.2z
		"/>
	<path class="st0" d="M145.8,45.8c1.3,0,2,0.6,2,1.6c0,0.7-0.5,1.4-1.2,1.5c0.9,0,1.6,0.8,1.6,1.6c0,0,0,0,0,0
		c0,1.1-0.9,1.7-2.3,1.7h-2.7v-6.5H145.8z M143.5,48.7h2.3c1,0,1.6-0.5,1.6-1.3s-0.6-1.3-1.6-1.3h-2.3L143.5,48.7z M143.5,51.9h2.3
		c1.2,0,2-0.5,2-1.4s-0.7-1.4-2-1.4h-2.3L143.5,51.9z"/>
	<path class="st0" d="M152.9,52.3h-0.4v-2.4l-2.6-4.1h0.4l2.4,3.7l2.3-3.7h0.4l-2.6,4.1L152.9,52.3z"/>
	<path class="st0" d="M165.2,46.4l-0.2,0.3c-0.5-0.3-1.1-0.5-1.7-0.5c-1,0-1.7,0.4-1.7,1.1c0,2,3.8,1,3.8,3.3c0,1-0.9,1.7-2.3,1.7
		c-0.9,0-1.7-0.4-2.3-1L161,51c0.6,0.6,1.3,0.9,2.1,0.9c1.1,0,1.8-0.5,1.8-1.2c0-2-3.8-1-3.8-3.3c0-0.9,0.9-1.5,2.1-1.5
		C164,45.8,164.6,46,165.2,46.4z"/>
	<path class="st0" d="M170.1,49l-1.5,1.6v1.7h-0.4v-6.5h0.4V50l3.9-4.2h0.5l-2.6,2.9l2.9,3.6h-0.5L170.1,49z"/>
	<path class="st0" d="M177.6,52.3h-0.4v-2.4l-2.6-4.1h0.4l2.4,3.7l2.3-3.7h0.4l-2.5,4.1V52.3z"/>
	<path class="st0" d="M182.3,50.4l-0.8,1.8h-0.4l2.9-6.5h0.4l3,6.5H187l-0.8-1.8H182.3z M184.2,46.3l-1.7,3.8h3.4L184.2,46.3z"/>
	<path class="st0" d="M193,51.9v0.4h-3.3v-6.5h0.4v6.1H193z"/>
	<path class="st0" d="M195.9,46.2v2.6h3.4v0.4h-3.4v2.8h3.9v0.4h-4.3v-6.5h4.2v0.4H195.9z"/>
	<path class="st0" d="M205.5,50.1c-0.2,0-0.4,0-0.6,0H203v2.2h-0.4v-6.5h2.3c1.6,0,2.5,0.8,2.5,2.1c0.1,1-0.6,1.9-1.6,2.1l1.6,2.3
		H207L205.5,50.1z M204.9,49.8c1.4,0,2.1-0.6,2.1-1.8s-0.8-1.8-2.1-1.8H203v3.6H204.9z"/>
	<path class="st0" d="M212,46.2v6.1h-0.4v-6.1h-2.2v-0.4h4.8v0.4H212z"/>
</g>
</svg>
